<svg width="747" height="267" viewBox="0 0 747 267" fill="none" xmlns="http://www.w3.org/2000/svg">
<rect x="35.4323" y="51" width="635.568" height="96" rx="48" fill="white" stroke="black" stroke-width="6"/>
<path d="M203.754 120V75.328H222.954C227.093 75.328 230.293 76.544 232.554 78.976C234.815 81.408 235.946 84.672 235.946 88.768C235.946 92.864 234.815 96.128 232.554 98.56C230.293 100.992 227.093 102.208 222.954 102.208H210.986V120H203.754ZM210.986 95.872H222.506C224.341 95.872 225.77 95.4027 226.794 94.464C227.818 93.4827 228.33 92.096 228.33 90.304V87.232C228.33 85.44 227.818 84.0747 226.794 83.136C225.77 82.1547 224.341 81.664 222.506 81.664H210.986V95.872ZM242.742 120V86.72H249.718V93.12H250.038C250.507 91.4133 251.489 89.92 252.982 88.64C254.475 87.36 256.545 86.72 259.19 86.72H261.046V93.44H258.294C255.521 93.44 253.387 93.888 251.894 94.784C250.443 95.68 249.718 97.0027 249.718 98.752V120H242.742ZM279.986 120.768C277.596 120.768 275.463 120.363 273.586 119.552C271.708 118.741 270.108 117.589 268.786 116.096C267.463 114.56 266.439 112.725 265.714 110.592C265.031 108.416 264.69 106.005 264.69 103.36C264.69 100.715 265.031 98.3253 265.714 96.192C266.439 94.016 267.463 92.1813 268.786 90.688C270.108 89.152 271.708 87.9787 273.586 87.168C275.463 86.3573 277.596 85.952 279.986 85.952C282.418 85.952 284.551 86.3787 286.386 87.232C288.263 88.0853 289.82 89.28 291.058 90.816C292.295 92.3093 293.212 94.0587 293.81 96.064C294.45 98.0693 294.77 100.224 294.77 102.528V105.152H271.922V106.24C271.922 108.8 272.668 110.912 274.162 112.576C275.698 114.197 277.874 115.008 280.69 115.008C282.738 115.008 284.466 114.56 285.874 113.664C287.282 112.768 288.476 111.552 289.458 110.016L293.554 114.048C292.316 116.096 290.524 117.739 288.178 118.976C285.831 120.171 283.1 120.768 279.986 120.768ZM279.986 91.392C278.791 91.392 277.682 91.6053 276.658 92.032C275.676 92.4587 274.823 93.056 274.098 93.824C273.415 94.592 272.882 95.5093 272.498 96.576C272.114 97.6427 271.922 98.816 271.922 100.096V100.544H287.41V99.904C287.41 97.344 286.748 95.296 285.426 93.76C284.103 92.1813 282.29 91.392 279.986 91.392ZM313.052 120.768C309.895 120.768 307.249 120.213 305.116 119.104C302.983 117.995 301.127 116.459 299.548 114.496L304.028 110.4C305.265 111.893 306.631 113.067 308.124 113.92C309.66 114.731 311.431 115.136 313.436 115.136C315.484 115.136 316.999 114.752 317.98 113.984C319.004 113.173 319.516 112.064 319.516 110.656C319.516 109.589 319.153 108.693 318.428 107.968C317.745 107.2 316.529 106.709 314.78 106.496L311.708 106.112C308.295 105.685 305.607 104.704 303.644 103.168C301.724 101.589 300.764 99.264 300.764 96.192C300.764 94.5707 301.063 93.1413 301.66 91.904C302.257 90.624 303.089 89.5573 304.156 88.704C305.265 87.808 306.567 87.1253 308.06 86.656C309.596 86.1867 311.281 85.952 313.116 85.952C316.103 85.952 318.535 86.4213 320.412 87.36C322.332 88.2987 324.039 89.6 325.532 91.264L321.244 95.36C320.391 94.336 319.26 93.4613 317.852 92.736C316.487 91.968 314.908 91.584 313.116 91.584C311.196 91.584 309.767 91.968 308.828 92.736C307.932 93.504 307.484 94.5067 307.484 95.744C307.484 97.024 307.889 97.984 308.7 98.624C309.511 99.264 310.812 99.7333 312.604 100.032L315.676 100.416C319.345 100.971 322.012 102.059 323.676 103.68C325.383 105.259 326.236 107.392 326.236 110.08C326.236 111.701 325.916 113.173 325.276 114.496C324.679 115.776 323.804 116.885 322.652 117.824C321.5 118.763 320.113 119.488 318.492 120C316.871 120.512 315.057 120.768 313.052 120.768ZM337.637 80.768C336.186 80.768 335.12 80.4267 334.437 79.744C333.797 79.0613 333.477 78.1867 333.477 77.12V76.032C333.477 74.9653 333.797 74.0907 334.437 73.408C335.12 72.7253 336.186 72.384 337.637 72.384C339.088 72.384 340.133 72.7253 340.773 73.408C341.413 74.0907 341.733 74.9653 341.733 76.032V77.12C341.733 78.1867 341.413 79.0613 340.773 79.744C340.133 80.4267 339.088 80.768 337.637 80.768ZM334.117 86.72H341.093V120H334.117V86.72ZM371.983 114.496H371.663C370.937 116.459 369.743 117.995 368.079 119.104C366.457 120.213 364.537 120.768 362.319 120.768C358.095 120.768 354.831 119.253 352.527 116.224C350.223 113.152 349.071 108.864 349.071 103.36C349.071 97.856 350.223 93.5893 352.527 90.56C354.831 87.488 358.095 85.952 362.319 85.952C364.537 85.952 366.457 86.5067 368.079 87.616C369.743 88.6827 370.937 90.2187 371.663 92.224H371.983V72.64H378.958V120H371.983V114.496ZM364.431 114.752C366.564 114.752 368.356 114.24 369.807 113.216C371.257 112.149 371.983 110.763 371.983 109.056V97.664C371.983 95.9573 371.257 94.592 369.807 93.568C368.356 92.5013 366.564 91.968 364.431 91.968C361.999 91.968 360.057 92.7573 358.607 94.336C357.156 95.872 356.431 97.92 356.431 100.48V106.24C356.431 108.8 357.156 110.869 358.607 112.448C360.057 113.984 361.999 114.752 364.431 114.752ZM401.986 120.768C399.596 120.768 397.463 120.363 395.586 119.552C393.708 118.741 392.108 117.589 390.786 116.096C389.463 114.56 388.439 112.725 387.714 110.592C387.031 108.416 386.69 106.005 386.69 103.36C386.69 100.715 387.031 98.3253 387.714 96.192C388.439 94.016 389.463 92.1813 390.786 90.688C392.108 89.152 393.708 87.9787 395.586 87.168C397.463 86.3573 399.596 85.952 401.986 85.952C404.418 85.952 406.551 86.3787 408.386 87.232C410.263 88.0853 411.82 89.28 413.058 90.816C414.295 92.3093 415.212 94.0587 415.81 96.064C416.45 98.0693 416.77 100.224 416.77 102.528V105.152H393.922V106.24C393.922 108.8 394.668 110.912 396.162 112.576C397.698 114.197 399.874 115.008 402.69 115.008C404.738 115.008 406.466 114.56 407.874 113.664C409.282 112.768 410.476 111.552 411.458 110.016L415.554 114.048C414.316 116.096 412.524 117.739 410.178 118.976C407.831 120.171 405.1 120.768 401.986 120.768ZM401.986 91.392C400.791 91.392 399.682 91.6053 398.658 92.032C397.676 92.4587 396.823 93.056 396.098 93.824C395.415 94.592 394.882 95.5093 394.498 96.576C394.114 97.6427 393.922 98.816 393.922 100.096V100.544H409.41V99.904C409.41 97.344 408.748 95.296 407.426 93.76C406.103 92.1813 404.29 91.392 401.986 91.392ZM424.492 120V86.72H431.468V92.224H431.788C432.513 90.432 433.601 88.9387 435.052 87.744C436.545 86.5493 438.572 85.952 441.132 85.952C444.545 85.952 447.191 87.0827 449.068 89.344C450.988 91.5627 451.948 94.7413 451.948 98.88V120H444.972V99.776C444.972 94.5707 442.881 91.968 438.7 91.968C437.804 91.968 436.908 92.096 436.012 92.352C435.159 92.5653 434.391 92.9067 433.708 93.376C433.025 93.8453 432.471 94.4427 432.044 95.168C431.66 95.8933 431.468 96.7467 431.468 97.728V120H424.492ZM470.833 120C468.401 120 466.566 119.381 465.329 118.144C464.092 116.864 463.473 115.072 463.473 112.768V92.416H458.289V86.72H461.105C462.257 86.72 463.046 86.464 463.473 85.952C463.942 85.44 464.177 84.608 464.177 83.456V77.632H470.449V86.72H477.425V92.416H470.449V114.304H476.913V120H470.833ZM517.205 81.728V120H509.973V81.728H496.661V75.328H530.517V81.728H517.205ZM545.923 120.768C543.534 120.768 541.4 120.363 539.523 119.552C537.646 118.741 536.046 117.589 534.723 116.096C533.4 114.56 532.376 112.725 531.651 110.592C530.968 108.416 530.627 106.005 530.627 103.36C530.627 100.715 530.968 98.3253 531.651 96.192C532.376 94.016 533.4 92.1813 534.723 90.688C536.046 89.152 537.646 87.9787 539.523 87.168C541.4 86.3573 543.534 85.952 545.923 85.952C548.355 85.952 550.488 86.3787 552.323 87.232C554.2 88.0853 555.758 89.28 556.995 90.816C558.232 92.3093 559.15 94.0587 559.747 96.064C560.387 98.0693 560.707 100.224 560.707 102.528V105.152H537.859V106.24C537.859 108.8 538.606 110.912 540.099 112.576C541.635 114.197 543.811 115.008 546.627 115.008C548.675 115.008 550.403 114.56 551.811 113.664C553.219 112.768 554.414 111.552 555.395 110.016L559.491 114.048C558.254 116.096 556.462 117.739 554.115 118.976C551.768 120.171 549.038 120.768 545.923 120.768ZM545.923 91.392C544.728 91.392 543.619 91.6053 542.595 92.032C541.614 92.4587 540.76 93.056 540.035 93.824C539.352 94.592 538.819 95.5093 538.435 96.576C538.051 97.6427 537.859 98.816 537.859 100.096V100.544H553.347V99.904C553.347 97.344 552.686 95.296 551.363 93.76C550.04 92.1813 548.227 91.392 545.923 91.392ZM592.814 120C590.979 120 589.571 119.488 588.59 118.464C587.608 117.397 587.011 116.053 586.798 114.432H586.478C585.838 116.523 584.664 118.101 582.958 119.168C581.251 120.235 579.182 120.768 576.75 120.768C573.294 120.768 570.627 119.872 568.75 118.08C566.915 116.288 565.998 113.877 565.998 110.848C565.998 107.52 567.192 105.024 569.582 103.36C572.014 101.696 575.555 100.864 580.206 100.864H586.222V98.048C586.222 96 585.667 94.4213 584.558 93.312C583.448 92.2027 581.72 91.648 579.374 91.648C577.411 91.648 575.811 92.0747 574.574 92.928C573.336 93.7813 572.291 94.8693 571.438 96.192L567.278 92.416C568.387 90.5387 569.944 89.0027 571.95 87.808C573.955 86.5707 576.579 85.952 579.822 85.952C584.131 85.952 587.438 86.9547 589.742 88.96C592.046 90.9653 593.198 93.8453 593.198 97.6V114.304H596.718V120H592.814ZM578.734 115.456C580.91 115.456 582.702 114.987 584.11 114.048C585.518 113.067 586.222 111.765 586.222 110.144V105.344H580.333C575.512 105.344 573.102 106.837 573.102 109.824V110.976C573.102 112.469 573.592 113.6 574.574 114.368C575.598 115.093 576.984 115.456 578.734 115.456ZM603.555 120V86.72H610.531V92.224H610.851C611.192 91.3707 611.597 90.56 612.067 89.792C612.579 89.024 613.176 88.3627 613.859 87.808C614.584 87.2107 615.416 86.7627 616.355 86.464C617.336 86.1227 618.467 85.952 619.747 85.952C622.008 85.952 624.013 86.5067 625.763 87.616C627.512 88.7253 628.792 90.432 629.603 92.736H629.795C630.392 90.8587 631.544 89.2587 633.251 87.936C634.957 86.6133 637.155 85.952 639.843 85.952C643.171 85.952 645.752 87.0827 647.587 89.344C649.421 91.5627 650.339 94.7413 650.339 98.88V120H643.363V99.712C643.363 97.152 642.872 95.232 641.891 93.952C640.909 92.6293 639.352 91.968 637.219 91.968C636.323 91.968 635.469 92.096 634.659 92.352C633.848 92.5653 633.123 92.9067 632.483 93.376C631.885 93.8453 631.395 94.4427 631.011 95.168C630.627 95.8933 630.435 96.7253 630.435 97.664V120H623.459V99.712C623.459 94.5493 621.432 91.968 617.378 91.968C616.525 91.968 615.672 92.096 614.819 92.352C614.008 92.5653 613.283 92.9067 612.643 93.376C612.003 93.8453 611.491 94.4427 611.107 95.168C610.723 95.8933 610.531 96.7253 610.531 97.664V120H603.555Z" fill="black"/>
<rect x="547.422" y="140.515" width="152" height="58" rx="14" transform="rotate(-22.5096 547.422 140.515)" fill="#00FF66"/>
<path d="M600.045 160.846L590.585 164.766L593.05 175.73L587.493 178.033L585.028 167.07L579.056 169.544L576.851 164.223L583.768 161.356L581.269 150.477L575.297 152.951L573.092 147.63L580.01 144.763L577.545 133.8L583.043 131.521L585.508 142.485L594.968 138.564L592.503 127.601L598.061 125.298L600.526 136.261L606.497 133.787L608.702 139.108L601.785 141.974L604.285 152.854L610.256 150.38L612.461 155.701L605.544 158.568L608.009 169.531L602.51 171.81L600.045 160.846ZM598.727 155.158L596.286 144.253L586.826 148.173L589.267 159.078L598.727 155.158ZM652.579 151.061L623.371 163.165L620.015 155.065L628.218 138.918C628.953 137.459 629.551 136.172 630.013 135.057C630.458 133.902 630.762 132.853 630.924 131.908C631.11 130.907 631.146 129.991 631.033 129.161C630.959 128.314 630.743 127.457 630.383 126.59L630.04 125.762C629.714 124.974 629.27 124.349 628.71 123.889C628.149 123.428 627.531 123.107 626.856 122.925C626.18 122.743 625.466 122.693 624.714 122.773C624.002 122.838 623.311 123.009 622.641 123.286C621.655 123.695 620.853 124.212 620.235 124.837C619.656 125.447 619.205 126.142 618.882 126.922C618.582 127.647 618.402 128.438 618.341 129.294C618.264 130.111 618.29 130.955 618.42 131.825L609.45 132.078C609.335 130.463 609.43 128.853 609.735 127.249C610.023 125.605 610.583 124.057 611.412 122.605C612.265 121.097 613.425 119.716 614.891 118.462C616.357 117.207 618.155 116.139 620.283 115.257C622.53 114.326 624.651 113.816 626.647 113.728C628.642 113.64 630.46 113.903 632.1 114.517C633.779 115.114 635.253 116.051 636.521 117.327C637.772 118.563 638.765 120.068 639.5 121.842C640.235 123.616 640.609 125.354 640.622 127.058C640.636 128.761 640.399 130.475 639.913 132.201C639.451 133.87 638.786 135.555 637.92 137.253C637.053 138.951 636.136 140.694 635.167 142.481L629.981 151.697L649.491 143.611L652.579 151.061ZM673.484 143.229C668.084 145.467 663.307 145.252 659.154 142.586C655.001 139.919 651.528 135.216 648.734 128.476C645.941 121.736 645.07 115.954 646.119 111.132C647.169 106.309 650.394 102.779 655.794 100.541C661.194 98.3034 665.97 98.5177 670.124 101.184C674.277 103.851 677.75 108.554 680.543 115.294C683.336 122.034 684.208 127.816 683.159 132.638C682.109 137.461 678.884 140.991 673.484 143.229ZM670.372 135.72C672.737 134.74 674.014 133.195 674.201 131.085C674.389 128.975 673.83 126.343 672.523 123.19L669.289 115.386C667.982 112.232 666.516 109.976 664.891 108.618C663.266 107.259 661.27 107.07 658.905 108.05C656.541 109.03 655.264 110.575 655.076 112.685C654.888 114.795 655.448 117.427 656.755 120.58L659.989 128.384C661.296 131.538 662.762 133.794 664.387 135.152C666.012 136.511 668.007 136.7 670.372 135.72Z" fill="white"/>
<path d="M71.5661 96.9467V77.1244C71.5661 76.4399 71.8478 75.8365 72.4131 75.317C72.9775 74.7966 73.6917 74.5374 74.5595 74.5374C75.4273 74.5374 76.1576 74.7976 76.7238 75.317C77.2882 75.8375 77.5709 76.4399 77.5709 77.1244V121.811C77.5709 122.252 77.52 122.636 77.4201 122.96C77.3184 123.283 77.0866 123.543 76.7238 123.738C76.3092 123.984 75.6129 124.106 74.6349 124.106H67.1621C65.8816 124.106 65.0101 123.885 64.5455 123.444C64.2817 123.239 64.1244 122.999 64.0744 122.724C64.0236 122.44 64 122.097 64 121.695V103.991C64 103.345 64.0245 102.942 64.0744 102.785C64.1743 102.423 64.4315 102.08 64.8461 101.757C65.2098 101.444 65.7243 101.203 66.3904 101.037C68.2966 100.595 69.4838 100.258 69.9483 100.022C71.0271 99.4536 71.567 98.4288 71.567 96.9486L71.5661 96.9467Z" fill="#00FF66"/>
<path d="M90.1675 74.9569C90.469 74.7995 91.0089 74.6628 91.79 74.5449C92.5052 74.4176 93.1468 74.3535 93.7122 74.3535H120.628C121.506 74.3535 122.203 74.3743 122.718 74.412C123.18 74.5006 123.594 74.7014 123.958 75.0154C124.307 75.3783 124.533 75.7215 124.633 76.0449C124.695 76.4079 124.727 76.8887 124.727 77.4855V86.708C124.727 87.5518 124.695 88.174 124.633 88.5747C124.531 89.0159 124.251 89.3987 123.788 89.723C123.337 90.0464 122.8 90.2472 122.174 90.3255C121.561 90.4037 121.128 90.4433 120.878 90.4433H115.641C114.776 90.4433 114.239 90.4245 114.026 90.3839C113.612 90.3057 113.18 90.1049 112.73 89.7815C112.266 89.4977 111.929 89.1347 111.716 88.6935C111.466 88.2928 111.341 87.8308 111.341 87.3113V82.3117C111.341 81.8705 111.265 81.4679 111.114 81.1058C110.9 80.7429 110.486 80.3799 109.869 80.0179C109.102 79.538 107.969 79.2976 106.472 79.2976H99.7339C98.5006 79.2976 97.4754 79.5182 96.6585 79.9594C95.4129 80.6458 94.7901 81.631 94.7901 82.9151V115.137C94.7901 115.618 94.8146 116.181 94.8645 116.828C94.8645 117.474 95.1472 118.039 95.7135 118.518C96.6425 119.322 97.9814 119.724 99.7283 119.724H112.794C113.874 119.724 114.698 119.661 115.264 119.532C115.776 119.454 116.34 119.195 116.953 118.754C117.98 117.989 118.494 117.003 118.494 115.797V111.459C118.494 110.42 118.725 109.601 119.188 109.002C119.589 108.434 120.433 108.15 121.722 108.15C122.698 108.15 123.443 108.455 123.957 109.062C124.407 109.698 124.632 110.458 124.632 111.341V120.559C124.632 121.403 124.607 121.966 124.558 122.25C124.456 122.524 124.124 122.881 123.56 123.322C122.693 124.008 121.513 124.35 120.019 124.35H91.9408C90.6443 124.241 89.7944 123.982 89.393 123.571C88.9266 123.131 88.6439 122.691 88.5441 122.25C88.3801 121.849 88.2991 121.324 88.2991 120.675V78.0295C88.2991 76.6275 88.9219 75.6027 90.1666 74.956L90.1675 74.9569Z" fill="#00FF66"/>
<path d="M135.431 76.538C135.431 75.7706 135.845 75.1455 136.673 74.6637C137.439 74.2225 138.36 74 139.439 74H174.597C175.525 74 176.347 74.2216 177.062 74.6637C177.79 75.1078 178.154 75.6688 178.154 76.3466C178.154 77.0245 177.813 77.6401 177.134 78.1606C176.467 78.6829 175.694 78.9431 174.814 78.9431H167.796C167.016 78.9431 166.526 78.9685 166.325 79.0166C165.96 79.0949 165.518 79.2966 165.004 79.62C164.236 80.1404 163.852 80.9201 163.852 81.9601V121.222C163.852 121.899 163.746 122.459 163.533 122.9C163.282 123.391 162.901 123.735 162.388 123.93C161.824 124.135 161.055 124.239 160.079 124.239H154.315C153.438 124.239 152.826 124.195 152.476 124.107C152.062 124.066 151.673 123.866 151.311 123.504C150.898 123.151 150.668 122.773 150.617 122.369C150.517 121.968 150.467 121.565 150.467 121.162V82.4446C150.467 81.2775 150.11 80.3941 149.395 79.7954C148.98 79.472 148.466 79.2306 147.851 79.0732C147.236 78.9459 146.515 78.8818 145.686 78.8818H139.288C138.259 78.8818 137.362 78.6612 136.597 78.22C135.818 77.8164 135.43 77.2564 135.43 76.538H135.431Z" fill="#00FF66"/>
</svg>
