<svg width="608" height="267" viewBox="0 0 608 267" fill="none" xmlns="http://www.w3.org/2000/svg">
<rect x="39" y="51" width="484" height="96" rx="48" fill="white" stroke="black" stroke-width="6"/>
<path d="M108.243 85.824H107.923L104.403 93.056L94.6105 110.912L84.8185 93.056L81.2985 85.824H80.9785V120H74.0665V75.328H82.6425L94.6105 98.048H94.9945L106.963 75.328H115.155V120H108.243V85.824ZM138.736 120.768C136.346 120.768 134.213 120.363 132.336 119.552C130.458 118.741 128.858 117.589 127.536 116.096C126.213 114.56 125.189 112.725 124.464 110.592C123.781 108.416 123.44 106.005 123.44 103.36C123.44 100.715 123.781 98.3253 124.464 96.192C125.189 94.016 126.213 92.1813 127.536 90.688C128.858 89.152 130.458 87.9787 132.336 87.168C134.213 86.3573 136.346 85.952 138.736 85.952C141.168 85.952 143.301 86.3787 145.136 87.232C147.013 88.0853 148.57 89.28 149.808 90.816C151.045 92.3093 151.962 94.0587 152.56 96.064C153.2 98.0693 153.52 100.224 153.52 102.528V105.152H130.672V106.24C130.672 108.8 131.418 110.912 132.912 112.576C134.448 114.197 136.624 115.008 139.44 115.008C141.488 115.008 143.216 114.56 144.624 113.664C146.032 112.768 147.226 111.552 148.208 110.016L152.304 114.048C151.066 116.096 149.274 117.739 146.928 118.976C144.581 120.171 141.85 120.768 138.736 120.768ZM138.736 91.392C137.541 91.392 136.432 91.6053 135.408 92.032C134.426 92.4587 133.573 93.056 132.848 93.824C132.165 94.592 131.632 95.5093 131.248 96.576C130.864 97.6427 130.672 98.816 130.672 100.096V100.544H146.16V99.904C146.16 97.344 145.498 95.296 144.176 93.76C142.853 92.1813 141.04 91.392 138.736 91.392ZM174.298 120.768C171.909 120.768 169.775 120.363 167.898 119.552C166.021 118.741 164.421 117.589 163.098 116.096C161.775 114.56 160.751 112.725 160.026 110.592C159.343 108.416 159.002 106.005 159.002 103.36C159.002 100.715 159.343 98.3253 160.026 96.192C160.751 94.016 161.775 92.1813 163.098 90.688C164.421 89.152 166.021 87.9787 167.898 87.168C169.775 86.3573 171.909 85.952 174.298 85.952C176.73 85.952 178.863 86.3787 180.698 87.232C182.575 88.0853 184.133 89.28 185.37 90.816C186.607 92.3093 187.525 94.0587 188.122 96.064C188.762 98.0693 189.082 100.224 189.082 102.528V105.152H166.234V106.24C166.234 108.8 166.981 110.912 168.474 112.576C170.01 114.197 172.186 115.008 175.002 115.008C177.05 115.008 178.778 114.56 180.186 113.664C181.594 112.768 182.789 111.552 183.77 110.016L187.866 114.048C186.629 116.096 184.837 117.739 182.49 118.976C180.143 120.171 177.413 120.768 174.298 120.768ZM174.298 91.392C173.103 91.392 171.994 91.6053 170.97 92.032C169.989 92.4587 169.135 93.056 168.41 93.824C167.727 94.592 167.194 95.5093 166.81 96.576C166.426 97.6427 166.234 98.816 166.234 100.096V100.544H181.722V99.904C181.722 97.344 181.061 95.296 179.738 93.76C178.415 92.1813 176.602 91.392 174.298 91.392ZM206.021 120C203.589 120 201.754 119.381 200.517 118.144C199.279 116.864 198.661 115.072 198.661 112.768V92.416H193.477V86.72H196.293C197.445 86.72 198.234 86.464 198.661 85.952C199.13 85.44 199.365 84.608 199.365 83.456V77.632H205.637V86.72H212.613V92.416H205.637V114.304H212.101V120H206.021ZM248.361 120.768C246.057 120.768 243.945 120.363 242.025 119.552C240.147 118.741 238.547 117.589 237.225 116.096C235.902 114.56 234.878 112.725 234.153 110.592C233.427 108.416 233.065 106.005 233.065 103.36C233.065 100.715 233.427 98.3253 234.153 96.192C234.878 94.016 235.902 92.1813 237.225 90.688C238.547 89.152 240.147 87.9787 242.025 87.168C243.945 86.3573 246.057 85.952 248.361 85.952C250.665 85.952 252.755 86.3573 254.633 87.168C256.553 87.9787 258.174 89.152 259.497 90.688C260.819 92.1813 261.843 94.016 262.569 96.192C263.294 98.3253 263.657 100.715 263.657 103.36C263.657 106.005 263.294 108.416 262.569 110.592C261.843 112.725 260.819 114.56 259.497 116.096C258.174 117.589 256.553 118.741 254.633 119.552C252.755 120.363 250.665 120.768 248.361 120.768ZM248.361 115.008C250.75 115.008 252.67 114.283 254.121 112.832C255.571 111.339 256.297 109.12 256.297 106.176V100.544C256.297 97.6 255.571 95.4027 254.121 93.952C252.67 92.4587 250.75 91.712 248.361 91.712C245.971 91.712 244.051 92.4587 242.601 93.952C241.15 95.4027 240.425 97.6 240.425 100.544V106.176C240.425 109.12 241.15 111.339 242.601 112.832C244.051 114.283 245.971 115.008 248.361 115.008ZM291.59 114.496H291.334C291.035 115.307 290.63 116.096 290.118 116.864C289.648 117.632 289.03 118.315 288.262 118.912C287.536 119.467 286.64 119.915 285.574 120.256C284.55 120.597 283.355 120.768 281.99 120.768C278.534 120.768 275.846 119.659 273.926 117.44C272.048 115.221 271.11 112.043 271.11 107.904V86.72H278.086V107.008C278.086 112.171 280.219 114.752 284.486 114.752C285.382 114.752 286.256 114.645 287.11 114.432C287.963 114.176 288.71 113.813 289.35 113.344C290.032 112.875 290.566 112.277 290.95 111.552C291.376 110.827 291.59 109.973 291.59 108.992V86.72H298.566V120H291.59V114.496ZM308.555 120V86.72H315.531V93.12H315.851C316.32 91.4133 317.301 89.92 318.795 88.64C320.288 87.36 322.357 86.72 325.003 86.72H326.859V93.44H324.107C321.333 93.44 319.2 93.888 317.707 94.784C316.256 95.68 315.531 97.0027 315.531 98.752V120H308.555ZM357.396 120C354.964 120 353.129 119.381 351.892 118.144C350.654 116.864 350.036 115.072 350.036 112.768V92.416H344.852V86.72H347.668C348.82 86.72 349.609 86.464 350.036 85.952C350.505 85.44 350.74 84.608 350.74 83.456V77.632H357.012V86.72H363.988V92.416H357.012V114.304H363.476V120H357.396ZM384.361 120.768C381.971 120.768 379.838 120.363 377.961 119.552C376.083 118.741 374.483 117.589 373.161 116.096C371.838 114.56 370.814 112.725 370.089 110.592C369.406 108.416 369.065 106.005 369.065 103.36C369.065 100.715 369.406 98.3253 370.089 96.192C370.814 94.016 371.838 92.1813 373.161 90.688C374.483 89.152 376.083 87.9787 377.961 87.168C379.838 86.3573 381.971 85.952 384.361 85.952C386.793 85.952 388.926 86.3787 390.761 87.232C392.638 88.0853 394.195 89.28 395.433 90.816C396.67 92.3093 397.587 94.0587 398.185 96.064C398.825 98.0693 399.145 100.224 399.145 102.528V105.152H376.297V106.24C376.297 108.8 377.043 110.912 378.537 112.576C380.073 114.197 382.249 115.008 385.065 115.008C387.113 115.008 388.841 114.56 390.249 113.664C391.657 112.768 392.851 111.552 393.833 110.016L397.929 114.048C396.691 116.096 394.899 117.739 392.553 118.976C390.206 120.171 387.475 120.768 384.361 120.768ZM384.361 91.392C383.166 91.392 382.057 91.6053 381.033 92.032C380.051 92.4587 379.198 93.056 378.473 93.824C377.79 94.592 377.257 95.5093 376.873 96.576C376.489 97.6427 376.297 98.816 376.297 100.096V100.544H391.785V99.904C391.785 97.344 391.123 95.296 389.801 93.76C388.478 92.1813 386.665 91.392 384.361 91.392ZM431.251 120C429.416 120 428.008 119.488 427.027 118.464C426.046 117.397 425.448 116.053 425.235 114.432H424.915C424.275 116.523 423.102 118.101 421.395 119.168C419.688 120.235 417.619 120.768 415.187 120.768C411.731 120.768 409.064 119.872 407.187 118.08C405.352 116.288 404.435 113.877 404.435 110.848C404.435 107.52 405.63 105.024 408.019 103.36C410.451 101.696 413.992 100.864 418.643 100.864H424.659V98.048C424.659 96 424.104 94.4213 422.995 93.312C421.886 92.2027 420.158 91.648 417.811 91.648C415.848 91.648 414.248 92.0747 413.011 92.928C411.774 93.7813 410.728 94.8693 409.875 96.192L405.715 92.416C406.824 90.5387 408.382 89.0027 410.387 87.808C412.392 86.5707 415.016 85.952 418.259 85.952C422.568 85.952 425.875 86.9547 428.179 88.96C430.483 90.9653 431.635 93.8453 431.635 97.6V114.304H435.155V120H431.251ZM417.171 115.456C419.347 115.456 421.139 114.987 422.547 114.048C423.955 113.067 424.659 111.765 424.659 110.144V105.344H418.771C413.95 105.344 411.539 106.837 411.539 109.824V110.976C411.539 112.469 412.03 113.6 413.011 114.368C414.035 115.093 415.422 115.456 417.171 115.456ZM441.992 120V86.72H448.968V92.224H449.288C449.629 91.3707 450.035 90.56 450.504 89.792C451.016 89.024 451.613 88.3627 452.296 87.808C453.021 87.2107 453.853 86.7627 454.792 86.464C455.773 86.1227 456.904 85.952 458.184 85.952C460.445 85.952 462.451 86.5067 464.2 87.616C465.949 88.7253 467.229 90.432 468.04 92.736H468.232C468.829 90.8587 469.981 89.2587 471.688 87.936C473.395 86.6133 475.592 85.952 478.28 85.952C481.608 85.952 484.189 87.0827 486.024 89.344C487.859 91.5627 488.776 94.7413 488.776 98.88V120H481.8V99.712C481.8 97.152 481.309 95.232 480.328 93.952C479.347 92.6293 477.789 91.968 475.656 91.968C474.76 91.968 473.907 92.096 473.096 92.352C472.285 92.5653 471.56 92.9067 470.92 93.376C470.323 93.8453 469.832 94.4427 469.448 95.168C469.064 95.8933 468.872 96.7253 468.872 97.664V120H461.896V99.712C461.896 94.5493 459.869 91.968 455.816 91.968C454.963 91.968 454.109 92.096 453.256 92.352C452.445 92.5653 451.72 92.9067 451.08 93.376C450.44 93.8453 449.928 94.4427 449.544 95.168C449.16 95.8933 448.968 96.7253 448.968 97.664V120H441.992Z" fill="black"/>
<rect x="399.422" y="140.515" width="152" height="58" rx="14" transform="rotate(-22.5096 399.422 140.515)" fill="#00FF66"/>
<path d="M452.045 160.846L442.585 164.766L445.05 175.73L439.493 178.033L437.028 167.07L431.056 169.544L428.851 164.223L435.768 161.356L433.269 150.477L427.297 152.951L425.092 147.63L432.01 144.763L429.545 133.8L435.043 131.521L437.508 142.485L446.968 138.564L444.503 127.601L450.061 125.298L452.526 136.261L458.497 133.787L460.702 139.108L453.785 141.974L456.285 152.854L462.256 150.38L464.461 155.701L457.544 158.568L460.009 169.531L454.51 171.81L452.045 160.846ZM450.727 155.158L448.286 144.253L438.826 148.173L441.267 159.078L450.727 155.158ZM504.579 151.061L475.371 163.165L472.015 155.065L480.218 138.918C480.953 137.459 481.551 136.172 482.013 135.057C482.458 133.902 482.762 132.853 482.924 131.908C483.11 130.907 483.146 129.991 483.033 129.161C482.959 128.314 482.743 127.457 482.383 126.59L482.04 125.762C481.714 124.974 481.27 124.349 480.71 123.889C480.149 123.428 479.531 123.107 478.856 122.925C478.18 122.743 477.466 122.693 476.714 122.773C476.002 122.838 475.311 123.009 474.641 123.286C473.655 123.695 472.854 124.212 472.235 124.837C471.656 125.447 471.205 126.142 470.882 126.922C470.582 127.647 470.402 128.438 470.341 129.294C470.264 130.111 470.29 130.955 470.42 131.825L461.45 132.078C461.335 130.463 461.43 128.853 461.735 127.249C462.023 125.605 462.583 124.057 463.412 122.605C464.265 121.097 465.425 119.716 466.891 118.462C468.357 117.207 470.155 116.139 472.283 115.257C474.53 114.326 476.651 113.816 478.647 113.728C480.642 113.64 482.46 113.903 484.1 114.517C485.779 115.114 487.253 116.051 488.521 117.327C489.772 118.563 490.765 120.068 491.5 121.842C492.235 123.616 492.609 125.354 492.622 127.058C492.636 128.761 492.399 130.475 491.913 132.201C491.451 133.87 490.786 135.555 489.92 137.253C489.053 138.951 488.136 140.694 487.168 142.481L481.981 151.697L501.492 143.611L504.579 151.061ZM525.484 143.229C520.084 145.467 515.307 145.252 511.154 142.586C507.001 139.919 503.528 135.216 500.734 128.476C497.941 121.736 497.07 115.954 498.119 111.132C499.169 106.309 502.394 102.779 507.794 100.541C513.194 98.3034 517.97 98.5177 522.124 101.184C526.277 103.851 529.75 108.554 532.543 115.294C535.336 122.034 536.208 127.816 535.159 132.638C534.109 137.461 530.884 140.991 525.484 143.229ZM522.372 135.72C524.737 134.74 526.014 133.195 526.202 131.085C526.389 128.975 525.83 126.343 524.523 123.19L521.289 115.386C519.982 112.232 518.516 109.976 516.891 108.618C515.266 107.259 513.27 107.07 510.906 108.05C508.541 109.03 507.264 110.575 507.076 112.685C506.888 114.795 507.448 117.427 508.755 120.58L511.989 128.384C513.296 131.538 514.762 133.794 516.387 135.152C518.012 136.511 520.007 136.7 522.372 135.72Z" fill="white"/>
</svg>
